<svg xmlns="http://www.w3.org/2000/svg" width="27" height="27" viewBox="0 0 27 27"><g><g><path fill="#404040" d="M22.898 18.383l-3.992-3.643-3.993 3.643v5.184c0 .404.329.733.733.733h6.52a.733.733 0 0 0 .732-.733zm2.639 2.407l-.58-.529v3.306a2.795 2.795 0 0 1-2.791 2.792h-6.52a2.795 2.795 0 0 1-2.792-2.792v-3.306l-.58.529-1.387-1.522 8.019-7.315 8.019 7.315zM11.054 8.236a2.32 2.32 0 0 0-2.317 2.316 2.32 2.32 0 0 0 2.317 2.317 2.32 2.32 0 0 0 2.317-2.317 2.32 2.32 0 0 0-2.317-2.316zm0-2.06a4.381 4.381 0 0 1 4.377 4.376 4.381 4.381 0 0 1-4.377 4.377 4.381 4.381 0 0 1-4.376-4.377 4.381 4.381 0 0 1 4.376-4.376zM17.387 19.1h3.089v3.089h-3.09zm-6.333 7.244l-.647-.523c-.1-.08-2.479-2.012-4.892-4.782C2.187 17.22.5 13.79.5 10.845v-.292C.5 4.733 5.235 0 11.054 0c5.82 0 10.555 4.735 10.555 10.554v.292c0 .247-.013.498-.037.752l-2.064-1.883c-.423-4.291-4.053-7.656-8.454-7.656-4.684 0-8.495 3.811-8.495 8.495v.292c0 4.974 6.408 10.995 8.495 12.823z"/></g></g></svg>