<?xml version="1.0" encoding="UTF-8" standalone="no"?>
<svg
   xmlns:dc="http://purl.org/dc/elements/1.1/"
   xmlns:cc="http://creativecommons.org/ns#"
   xmlns:rdf="http://www.w3.org/1999/02/22-rdf-syntax-ns#"
   xmlns:svg="http://www.w3.org/2000/svg"
   xmlns="http://www.w3.org/2000/svg"
   xmlns:sodipodi="http://sodipodi.sourceforge.net/DTD/sodipodi-0.dtd"
   xmlns:inkscape="http://www.inkscape.org/namespaces/inkscape"
   width="25"
   height="27"
   viewBox="0 0 25 27"
   version="1.1"
   id="svg32"
   sodipodi:docname="basket.svg"
   inkscape:version="0.92.5 (2060ec1f9f, 2020-04-08)">
  <metadata
     id="metadata38">
    <rdf:RDF>
      <cc:Work
         rdf:about="">
        <dc:format>image/svg+xml</dc:format>
        <dc:type
           rdf:resource="http://purl.org/dc/dcmitype/StillImage" />
      </cc:Work>
    </rdf:RDF>
  </metadata>
  <defs
     id="defs36" />
  <sodipodi:namedview
     pagecolor="#ffffff"
     bordercolor="#666666"
     borderopacity="1"
     objecttolerance="10"
     gridtolerance="10"
     guidetolerance="10"
     inkscape:pageopacity="0"
     inkscape:pageshadow="2"
     inkscape:window-width="1920"
     inkscape:window-height="1046"
     id="namedview34"
     showgrid="false"
     inkscape:zoom="8.7407407"
     inkscape:cx="12.5"
     inkscape:cy="13.5"
     inkscape:window-x="0"
     inkscape:window-y="34"
     inkscape:window-maximized="0"
     inkscape:current-layer="svg32" />
  <g
     id="g30"
     style="fill:#404040;fill-opacity:1">
    <g
       id="g28"
       style="fill:#404040;fill-opacity:1">
      <g
         id="g18"
         style="fill:#404040;fill-opacity:1">
        <g
           id="g16"
           style="fill:#404040;fill-opacity:1">
          <g
             id="g14"
             style="fill:#404040;fill-opacity:1">
            <g
               id="g4"
               style="fill:#404040;fill-opacity:1">
              <path
                 fill="#4e74a6"
                 d="M8.821 24.242a1.176 1.176 0 0 1 0-2.35 1.176 1.176 0 0 1 0 2.35zm0-4.206c-1.67 0-3.03 1.36-3.03 3.03 0 1.671 1.36 3.03 3.03 3.03 1.671 0 3.03-1.36 3.03-3.03 0-1.67-1.359-3.03-3.03-3.03z"
                 id="path2"
                 style="fill:#404040;fill-opacity:1" />
            </g>
            <g
               id="g8"
               style="fill:#404040;fill-opacity:1">
              <path
                 fill="#4e74a6"
                 d="M19.286 24.241a1.176 1.176 0 0 1-1.176-1.175 1.176 1.176 0 0 1 2.35 0c0 .648-.526 1.175-1.174 1.175zm0-4.205a3.034 3.034 0 0 0-3.03 3.03c0 1.671 1.359 3.03 3.03 3.03 1.67 0 3.03-1.359 3.03-3.03 0-1.67-1.36-3.03-3.03-3.03z"
                 id="path6"
                 style="fill:#404040;fill-opacity:1" />
            </g>
            <g
               id="g12"
               style="fill:#404040;fill-opacity:1">
              <path
                 fill="#4e74a6"
                 d="M7.504 19.109H21.42a.89.89 0 0 0 .895-.887.89.89 0 0 0-.895-.886H8.264L5.704 1.769a.89.89 0 0 0-.73-.731L1.549.447a.893.893 0 0 0-1.035.721.887.887 0 0 0 .728 1.025l2.8.483 2.58 15.689c.07.43.444.744.883.744z"
                 id="path10"
                 style="fill:#404040;fill-opacity:1" />
            </g>
          </g>
        </g>
      </g>
      <g
         id="g26"
         style="fill:#404040;fill-opacity:1">
        <g
           id="g24"
           style="fill:#404040;fill-opacity:1">
          <g
             id="g22"
             style="fill:#404040;fill-opacity:1">
            <path
               fill="#4e74a6"
               d="M24.55 6.154a.927.927 0 0 0-.75-.382H4.938v1.856h17.59l-1.909 5.936H6.268v1.855h15.027c.403 0 .76-.26.884-.643l2.504-7.792a.928.928 0 0 0-.134-.83z"
               id="path20"
               style="fill:#404040;fill-opacity:1" />
          </g>
        </g>
      </g>
    </g>
  </g>
</svg>
