<svg xmlns="http://www.w3.org/2000/svg" width="26" height="23" viewBox="0 0 26 23"><g><g><path fill="#404040" d="M17.466 2.327c1.444 0 2.791.552 3.791 1.551a5.433 5.433 0 0 1 1.541 3.825 5.43 5.43 0 0 1-1.559 3.813l-8.425 8.398L4.39 11.49a5.336 5.336 0 0 1-1.56-3.8c0-1.445.554-2.795 1.56-3.8a5.347 5.347 0 0 1 3.815-1.562c1.431 0 2.79.558 3.824 1.57.22.214.508.332.814.332.311 0 .604-.12.823-.34a5.332 5.332 0 0 1 3.801-1.562zm5.447-.086A7.647 7.647 0 0 0 17.466 0a7.62 7.62 0 0 0-4.63 1.532A7.7 7.7 0 0 0 8.204 0C6.128 0 4.19.795 2.742 2.241A7.645 7.645 0 0 0 .5 7.688c0 2.067.796 4.001 2.242 5.447l9.248 9.248c.22.22.512.341.823.341.31 0 .602-.12.822-.34l9.258-9.229a7.762 7.762 0 0 0 2.233-5.452c0-2.06-.785-4-2.213-5.462z"/></g></g></svg>