<svg xmlns="http://www.w3.org/2000/svg" width="26" height="23" viewBox="0 0 26 23"><g><g><g><path fill="#404040" d="M13.206 6.354l-.003 5.556c0 .211.084.413.233.562l3.975 3.974 1.123-1.123-3.742-3.742.002-5.227z"/></g><g><path fill="#404040" d="M14.796 0C9.206 0 4.579 4.152 3.804 9.53H.5l3.971 3.971 3.971-3.97H5.409c.76-4.5 4.674-7.943 9.387-7.943 5.255 0 9.53 4.275 9.53 9.53 0 5.256-4.275 9.531-9.53 9.531a9.48 9.48 0 0 1-7.516-3.668l-1.252.977a11.06 11.06 0 0 0 8.768 4.28c6.13 0 11.119-4.989 11.119-11.12C25.915 4.989 20.927 0 14.795 0z"/></g></g></g></svg>