<svg xmlns="http://www.w3.org/2000/svg" width="25" height="24" viewBox="0 0 25 24"><g><g><path fill="#404040" d="M23.814 10.389l-2.1-2.1a.937.937 0 1 0-1.326 1.326l1.494 1.494H10.625a.937.937 0 1 0 0 1.875h11.257l-1.494 1.493a.937.937 0 1 0 1.326 1.326l2.1-2.1c.913-.913.913-2.4 0-3.314zm-6.392 7.985a.937.937 0 1 0-1.875 0v1.875a1.877 1.877 0 0 1-1.875 1.875H4.25a1.877 1.877 0 0 1-1.875-1.875V3.75c0-1.033.841-1.875 1.875-1.875h9.422c1.034 0 1.875.842 1.875 1.875v1.875a.937.937 0 1 0 1.875 0V3.75A3.754 3.754 0 0 0 13.672 0H4.25A3.754 3.754 0 0 0 .5 3.75v16.5A3.754 3.754 0 0 0 4.25 24h9.422a3.754 3.754 0 0 0 3.75-3.75v-1.875z"/></g></g></svg>