<svg xmlns="http://www.w3.org/2000/svg" width="34" height="31" viewBox="0 0 34 31"><g><g><g><path fill="#404040" d="M27.83 15.258a.424.424 0 0 1-.424-.424v-5.32h-4.242a.424.424 0 0 1 0-.847h4.666c.234 0 .424.19.424.424v5.744c0 .234-.19.423-.424.423z"/><path fill="none" stroke="#404040" stroke-miterlimit="20" stroke-width=".4" d="M27.83 15.258a.424.424 0 0 1-.424-.424v-5.32 0h-4.242a.424.424 0 0 1 0-.847h4.666c.234 0 .424.19.424.424v5.744c0 .234-.19.423-.424.423z"/></g><g><path fill="#404040" d="M27.83 26.481H8.106A3.61 3.61 0 0 1 4.5 22.875V6.758a.424.424 0 1 1 .849 0v16.119a2.76 2.76 0 0 0 2.757 2.757h19.3v-5.709a.424.424 0 0 1 .848 0v6.133c0 .234-.19.424-.424.424z"/><path fill="none" stroke="#404040" stroke-miterlimit="20" stroke-width=".4" d="M27.83 26.481v0H8.106A3.61 3.61 0 0 1 4.5 22.875V6.758a.424.424 0 1 1 .849 0v16.119a2.76 2.76 0 0 0 2.757 2.757h19.3v0-5.709a.424.424 0 0 1 .848 0v6.133c0 .234-.19.424-.424.424z"/></g><g><path fill="#404040" d="M28.776 19.5H23.23a2.12 2.12 0 1 1 0-4.242h5.545zm0 .848a.85.85 0 0 0 .848-.848v-4.242a.85.85 0 0 0-.848-.848H23.23a2.97 2.97 0 1 0 0 5.938h5.545z"/><path fill="none" stroke="#404040" stroke-miterlimit="20" stroke-width=".4" d="M28.776 19.5H23.23a2.12 2.12 0 1 1 0-4.242h5.545zm0 .848a.85.85 0 0 0 .848-.848v-4.242a.85.85 0 0 0-.848-.848H23.23a2.97 2.97 0 1 0 0 5.938h5.545z"/></g><g><path fill="#404040" d="M22.738 4.852v3.814H7.258a1.909 1.909 0 0 1 0-3.818zm.426 4.662c.235 0 .424-.19.424-.424V4.852c0-.47-.38-.85-.85-.852H7.258a2.757 2.757 0 0 0 0 5.514h15.906z"/><path fill="none" stroke="#404040" stroke-miterlimit="20" stroke-width=".4" d="M22.738 4.852v3.814H7.258a1.909 1.909 0 0 1 0-3.818zm.426 4.662c.235 0 .424-.19.424-.424V4.852c0-.47-.38-.85-.85-.852H7.258a2.757 2.757 0 0 0 0 5.514h15.906z"/></g><g><path fill="#404040" d="M23.164 7.181H9.1a.424.424 0 1 1 0-.848h14.065a.424.424 0 1 1 0 .848z"/><path fill="none" stroke="#404040" stroke-miterlimit="20" stroke-width=".4" d="M23.164 7.181H9.1a.424.424 0 1 1 0-.848h14.065a.424.424 0 1 1 0 .848z"/></g></g></g></svg>