<svg xmlns="http://www.w3.org/2000/svg" width="31" height="33" viewBox="0 0 31 33"><g><g><g><g><g><g><path fill="#344059" d="M10.623 30.493c-.8 0-1.452-.65-1.452-1.452 0-.8.651-1.452 1.452-1.452.8 0 1.452.651 1.452 1.452 0 .801-.651 1.452-1.452 1.452zm0-5.197a3.749 3.749 0 0 0-3.745 3.745 3.749 3.749 0 0 0 3.745 3.745 3.75 3.75 0 0 0 3.745-3.745 3.75 3.75 0 0 0-3.745-3.745z"/></g><g><path fill="#344059" d="M24.227 30.493c-.801 0-1.453-.652-1.453-1.452a1.453 1.453 0 0 1 2.905 0c0 .8-.651 1.452-1.452 1.452zm0-5.197a3.749 3.749 0 0 0-3.745 3.745 3.749 3.749 0 0 0 3.745 3.745 3.75 3.75 0 0 0 3.744-3.745 3.75 3.75 0 0 0-3.744-3.745z"/></g><g><path fill="#344059" d="M8.98 24.15h17.845a1.146 1.146 0 1 0 0-2.293H9.955L6.673 1.727A1.146 1.146 0 0 0 5.738.78L1.343.017A1.145 1.145 0 1 0 .95 2.276l3.59.624 3.308 20.288c.091.555.57.962 1.132.962z"/></g></g></g></g><g><g><g><path fill="#344059" d="M30.732 7.426a1.146 1.146 0 0 0-.927-.471H6.496v2.293h21.737l-2.358 7.336H8.139v2.293h18.572c.497 0 .938-.322 1.09-.796l3.096-9.63c.112-.348.05-.73-.165-1.025z"/></g></g></g></g></g></svg>