<svg xmlns="http://www.w3.org/2000/svg" width="18" height="18" viewBox="0 0 18 18"><g><g><g><g><g><path fill="#344059" d="M8.08 13.762a6.188 6.188 0 0 1-6.18-6.18A6.188 6.188 0 0 1 8.08 1.4a6.188 6.188 0 0 1 6.182 6.181 6.188 6.188 0 0 1-6.181 6.181zM8.08 0C3.9 0 .5 3.401.5 7.581c0 4.18 3.4 7.58 7.58 7.58s7.581-3.4 7.581-7.58-3.4-7.58-7.58-7.58z"/></g></g></g><g><g><g><path fill="#344059" d="M17.51 16.02l-4.013-4.012a.7.7 0 1 0-.99.99l4.013 4.012a.697.697 0 0 0 .99 0 .7.7 0 0 0 0-.99z"/></g></g></g></g></g></svg>