<svg xmlns="http://www.w3.org/2000/svg" width="30" height="30" viewBox="0 0 30 30"><defs><mask id="vcxmb" width="2" height="2" x="-1" y="-1"><path fill="#fff" d="M2 1h26v26H2z"/><path d="M2.392 13.61c0-6.887 5.627-12.47 12.568-12.47 6.942 0 12.57 5.583 12.57 12.47 0 6.886-5.628 12.469-12.57 12.469-6.94 0-12.568-5.583-12.568-12.469z"/></mask><filter id="vcxma" width="50" height="51" x="-10" y="-11" filterUnits="userSpaceOnUse"><feOffset dy="1" in="SourceGraphic" result="FeOffset1131Out"/><feGaussianBlur in="FeOffset1131Out" result="FeGaussianBlur1132Out" stdDeviation="0.8 0.8"/></filter></defs><g><g><g filter="url(#vcxma)"><path fill="none" d="M2.392 13.61c0-6.887 5.627-12.47 12.568-12.47 6.942 0 12.57 5.583 12.57 12.47 0 6.886-5.628 12.469-12.57 12.469-6.94 0-12.568-5.583-12.568-12.469z" mask="url(&quot;#vcxmb&quot;)"/><path fill-opacity=".16" d="M2.392 13.61c0-6.887 5.627-12.47 12.568-12.47 6.942 0 12.57 5.583 12.57 12.47 0 6.886-5.628 12.469-12.57 12.469-6.94 0-12.568-5.583-12.568-12.469z"/></g><path fill="#fff" d="M2.392 13.61c0-6.887 5.627-12.47 12.568-12.47 6.942 0 12.57 5.583 12.57 12.47 0 6.886-5.628 12.469-12.57 12.469-6.94 0-12.568-5.583-12.568-12.469z"/></g></g></svg>