<svg xmlns="http://www.w3.org/2000/svg" width="28" height="30" viewBox="0 0 28 30"><g><g><g><g><g><path fill="#404040" d="M2.4 27.887c.418-5.613 4.245-8.457 11.391-8.457 7.147 0 10.973 2.844 11.391 8.457zm11.391-10.58C5.052 17.307.24 21.44.24 28.948c0 .587.475 1.062 1.062 1.062h24.981c.586 0 1.062-.475 1.062-1.062 0-7.507-4.813-11.641-13.553-11.641z"/></g></g></g><g><g><g><path fill="#404040" d="M13.791 13.627c-2.712 0-4.918-2.476-4.918-5.52 0-2.932 2.068-5.06 4.918-5.06 2.805 0 4.919 2.175 4.919 5.06 0 3.044-2.206 5.52-4.919 5.52zm0-12.703C9.777.924 6.75 4.012 6.75 8.107c0 4.214 3.159 7.643 7.041 7.643 3.883 0 7.042-3.429 7.042-7.643 0-4.095-3.027-7.183-7.042-7.183z"/></g></g></g></g></g></svg>